<svg xmlns="http://www.w3.org/2000/svg" xmlns:xlink="http://www.w3.org/1999/xlink" width="500" zoomAndPan="magnify" viewBox="0 0 375 374.999991" height="500" preserveAspectRatio="xMidYMid meet" version="1.0"><defs><g/></defs><g fill="#ffffff" fill-opacity="1"><g transform="translate(97.151432, 190.756466)"><g><path d="M 11.796875 -11.296875 C 11.796875 -11.191406 11.785156 -11.085938 11.765625 -10.984375 C 11.742188 -10.878906 11.710938 -10.773438 11.671875 -10.671875 C 11.492188 -10.222656 11.21875 -9.84375 10.84375 -9.53125 C 10.476562 -9.226562 10.039062 -9.078125 9.53125 -9.078125 C 8.757812 -9.078125 8.238281 -9.460938 7.96875 -10.234375 C 7.925781 -10.328125 7.90625 -10.4375 7.90625 -10.5625 C 7.90625 -10.695312 7.894531 -10.832031 7.875 -10.96875 L 7.875 -11.8125 C 7.84375 -12.09375 7.773438 -12.3125 7.671875 -12.46875 C 7.578125 -12.625 7.410156 -12.703125 7.171875 -12.703125 C 6.835938 -12.703125 6.519531 -12.488281 6.21875 -12.0625 C 5.914062 -11.644531 5.648438 -11.144531 5.421875 -10.5625 C 5.203125 -9.988281 5.019531 -9.394531 4.875 -8.78125 C 4.738281 -8.175781 4.671875 -7.691406 4.671875 -7.328125 C 4.671875 -7.023438 4.691406 -6.660156 4.734375 -6.234375 C 4.773438 -5.816406 4.851562 -5.410156 4.96875 -5.015625 C 5.082031 -4.628906 5.242188 -4.296875 5.453125 -4.015625 C 5.660156 -3.734375 5.929688 -3.59375 6.265625 -3.59375 C 6.597656 -3.59375 6.90625 -3.691406 7.1875 -3.890625 C 7.46875 -4.097656 7.75 -4.335938 8.03125 -4.609375 C 8.28125 -4.847656 8.554688 -5.09375 8.859375 -5.34375 C 9.171875 -5.601562 9.519531 -5.734375 9.90625 -5.734375 C 10.394531 -5.734375 10.78125 -5.554688 11.0625 -5.203125 C 11.351562 -4.847656 11.5 -4.445312 11.5 -4 C 11.5 -3.332031 11.320312 -2.707031 10.96875 -2.125 C 10.613281 -1.550781 10.171875 -1.050781 9.640625 -0.625 C 9.109375 -0.207031 8.519531 0.117188 7.875 0.359375 C 7.226562 0.609375 6.613281 0.734375 6.03125 0.734375 C 4.96875 0.734375 4.066406 0.46875 3.328125 -0.0625 C 2.597656 -0.59375 2.003906 -1.265625 1.546875 -2.078125 C 1.097656 -2.890625 0.773438 -3.773438 0.578125 -4.734375 C 0.390625 -5.691406 0.296875 -6.601562 0.296875 -7.46875 C 0.296875 -8.46875 0.429688 -9.550781 0.703125 -10.71875 C 0.984375 -11.882812 1.40625 -12.96875 1.96875 -13.96875 C 2.539062 -14.96875 3.269531 -15.800781 4.15625 -16.46875 C 5.050781 -17.132812 6.113281 -17.46875 7.34375 -17.46875 C 8.113281 -17.46875 8.773438 -17.300781 9.328125 -16.96875 C 9.890625 -16.632812 10.351562 -16.195312 10.71875 -15.65625 C 11.082031 -15.113281 11.351562 -14.507812 11.53125 -13.84375 C 11.71875 -13.175781 11.8125 -12.519531 11.8125 -11.875 C 11.8125 -11.78125 11.8125 -11.679688 11.8125 -11.578125 C 11.8125 -11.484375 11.804688 -11.390625 11.796875 -11.296875 Z M 11.796875 -11.296875 "/></g></g></g><g fill="#ffffff" fill-opacity="1"><g transform="translate(109.70029, 190.756466)"><g><path d="M 13.375 -4.140625 C 13.375 -3.785156 13.359375 -3.320312 13.328125 -2.75 C 13.304688 -2.1875 13.222656 -1.632812 13.078125 -1.09375 C 12.941406 -0.5625 12.726562 -0.101562 12.4375 0.28125 C 12.144531 0.675781 11.734375 0.875 11.203125 0.875 C 10.472656 0.875 9.910156 0.640625 9.515625 0.171875 C 9.128906 -0.296875 8.945312 -0.882812 8.96875 -1.59375 C 8.34375 -1.039062 7.628906 -0.609375 6.828125 -0.296875 C 6.035156 0.015625 5.226562 0.171875 4.40625 0.171875 C 3.84375 0.171875 3.304688 0.0351562 2.796875 -0.234375 C 2.285156 -0.503906 1.832031 -0.851562 1.4375 -1.28125 C 1.050781 -1.71875 0.738281 -2.207031 0.5 -2.75 C 0.257812 -3.289062 0.140625 -3.828125 0.140625 -4.359375 C 0.140625 -5.296875 0.425781 -6.113281 1 -6.8125 C 1.582031 -7.519531 2.296875 -8.125 3.140625 -8.625 C 3.984375 -9.125 4.878906 -9.519531 5.828125 -9.8125 C 6.785156 -10.113281 7.632812 -10.3125 8.375 -10.40625 C 8.375 -10.507812 8.378906 -10.597656 8.390625 -10.671875 C 8.398438 -10.753906 8.40625 -10.84375 8.40625 -10.9375 C 8.40625 -11.539062 8.238281 -12.03125 7.90625 -12.40625 C 7.570312 -12.78125 7.101562 -12.96875 6.5 -12.96875 C 6.007812 -12.96875 5.585938 -12.882812 5.234375 -12.71875 C 4.878906 -12.550781 4.546875 -12.363281 4.234375 -12.15625 C 3.921875 -11.945312 3.609375 -11.757812 3.296875 -11.59375 C 2.984375 -11.425781 2.628906 -11.34375 2.234375 -11.34375 C 1.804688 -11.34375 1.4375 -11.476562 1.125 -11.75 C 0.820312 -12.03125 0.671875 -12.382812 0.671875 -12.8125 C 0.671875 -13.46875 0.863281 -14.054688 1.25 -14.578125 C 1.632812 -15.109375 2.113281 -15.554688 2.6875 -15.921875 C 3.269531 -16.285156 3.898438 -16.566406 4.578125 -16.765625 C 5.253906 -16.972656 5.875 -17.078125 6.4375 -17.078125 C 6.96875 -17.078125 7.5 -17.015625 8.03125 -16.890625 C 8.5625 -16.765625 9.0625 -16.566406 9.53125 -16.296875 C 10 -16.035156 10.421875 -15.710938 10.796875 -15.328125 C 11.179688 -14.953125 11.492188 -14.507812 11.734375 -14 C 12.085938 -13.269531 12.367188 -12.5 12.578125 -11.6875 C 12.796875 -10.875 12.960938 -10.039062 13.078125 -9.1875 C 13.203125 -8.332031 13.28125 -7.476562 13.3125 -6.625 C 13.351562 -5.769531 13.375 -4.941406 13.375 -4.140625 Z M 8.671875 -5.09375 L 8.578125 -7.09375 C 8.546875 -7.09375 8.507812 -7.09375 8.46875 -7.09375 C 8.425781 -7.101562 8.382812 -7.109375 8.34375 -7.109375 C 8.09375 -7.109375 7.773438 -7.046875 7.390625 -6.921875 C 7.015625 -6.796875 6.648438 -6.617188 6.296875 -6.390625 C 5.941406 -6.171875 5.640625 -5.921875 5.390625 -5.640625 C 5.148438 -5.367188 5.03125 -5.085938 5.03125 -4.796875 C 5.03125 -4.515625 5.125 -4.328125 5.3125 -4.234375 C 5.507812 -4.140625 5.738281 -4.09375 6 -4.09375 C 6.425781 -4.09375 6.882812 -4.203125 7.375 -4.421875 C 7.863281 -4.648438 8.296875 -4.875 8.671875 -5.09375 Z M 8.671875 -5.09375 "/></g></g></g><g fill="#ffffff" fill-opacity="1"><g transform="translate(123.953676, 190.756466)"><g><path d="M 18.734375 -9.703125 C 18.734375 -9.328125 18.734375 -8.820312 18.734375 -8.1875 C 18.734375 -7.550781 18.71875 -6.859375 18.6875 -6.109375 C 18.65625 -5.367188 18.585938 -4.617188 18.484375 -3.859375 C 18.390625 -3.109375 18.238281 -2.425781 18.03125 -1.8125 C 17.832031 -1.207031 17.578125 -0.707031 17.265625 -0.3125 C 16.953125 0.0703125 16.546875 0.265625 16.046875 0.265625 C 15.617188 0.265625 15.289062 0.0820312 15.0625 -0.28125 C 14.84375 -0.644531 14.679688 -1.070312 14.578125 -1.5625 C 14.484375 -2.050781 14.429688 -2.550781 14.421875 -3.0625 C 14.410156 -3.570312 14.40625 -3.972656 14.40625 -4.265625 C 14.40625 -5.148438 14.429688 -6.007812 14.484375 -6.84375 C 14.546875 -7.6875 14.578125 -8.550781 14.578125 -9.4375 C 14.578125 -9.53125 14.578125 -9.703125 14.578125 -9.953125 C 14.578125 -10.210938 14.554688 -10.46875 14.515625 -10.71875 C 14.484375 -10.976562 14.421875 -11.207031 14.328125 -11.40625 C 14.242188 -11.601562 14.113281 -11.703125 13.9375 -11.703125 C 13.582031 -11.703125 13.296875 -11.519531 13.078125 -11.15625 C 12.867188 -10.789062 12.691406 -10.363281 12.546875 -9.875 C 12.410156 -9.382812 12.3125 -8.898438 12.25 -8.421875 C 12.195312 -7.941406 12.160156 -7.582031 12.140625 -7.34375 C 12.097656 -7.09375 12.0625 -6.710938 12.03125 -6.203125 C 12.007812 -5.691406 11.972656 -5.128906 11.921875 -4.515625 C 11.867188 -3.910156 11.789062 -3.289062 11.6875 -2.65625 C 11.582031 -2.019531 11.445312 -1.441406 11.28125 -0.921875 C 11.113281 -0.398438 10.898438 0.0234375 10.640625 0.359375 C 10.390625 0.691406 10.078125 0.859375 9.703125 0.859375 C 9.234375 0.859375 8.867188 0.648438 8.609375 0.234375 C 8.359375 -0.171875 8.171875 -0.648438 8.046875 -1.203125 C 7.929688 -1.753906 7.859375 -2.3125 7.828125 -2.875 C 7.804688 -3.445312 7.796875 -3.890625 7.796875 -4.203125 C 7.796875 -4.535156 7.800781 -4.859375 7.8125 -5.171875 C 7.820312 -5.484375 7.828125 -5.804688 7.828125 -6.140625 C 7.828125 -6.273438 7.828125 -6.5 7.828125 -6.8125 C 7.828125 -7.132812 7.820312 -7.484375 7.8125 -7.859375 C 7.800781 -8.242188 7.78125 -8.640625 7.75 -9.046875 C 7.71875 -9.460938 7.671875 -9.84375 7.609375 -10.1875 C 7.554688 -10.53125 7.46875 -10.804688 7.34375 -11.015625 C 7.226562 -11.234375 7.09375 -11.34375 6.9375 -11.34375 C 6.6875 -11.34375 6.453125 -11.179688 6.234375 -10.859375 C 6.015625 -10.535156 5.828125 -10.15625 5.671875 -9.71875 C 5.515625 -9.28125 5.390625 -8.84375 5.296875 -8.40625 C 5.210938 -7.976562 5.171875 -7.664062 5.171875 -7.46875 L 5.171875 -7.296875 C 5.171875 -6.347656 5.226562 -5.421875 5.34375 -4.515625 C 5.46875 -3.617188 5.53125 -2.703125 5.53125 -1.765625 C 5.53125 -1.210938 5.351562 -0.707031 5 -0.25 C 4.644531 0.207031 4.15625 0.4375 3.53125 0.4375 C 3.082031 0.4375 2.707031 0.265625 2.40625 -0.078125 C 2.113281 -0.421875 1.867188 -0.863281 1.671875 -1.40625 C 1.472656 -1.957031 1.320312 -2.5625 1.21875 -3.21875 C 1.113281 -3.875 1.039062 -4.519531 1 -5.15625 C 0.957031 -5.789062 0.929688 -6.367188 0.921875 -6.890625 C 0.910156 -7.410156 0.90625 -7.800781 0.90625 -8.0625 C 0.90625 -8.351562 0.898438 -8.78125 0.890625 -9.34375 C 0.878906 -9.914062 0.890625 -10.535156 0.921875 -11.203125 C 0.953125 -11.867188 1.003906 -12.550781 1.078125 -13.25 C 1.160156 -13.945312 1.289062 -14.578125 1.46875 -15.140625 C 1.644531 -15.710938 1.875 -16.175781 2.15625 -16.53125 C 2.445312 -16.894531 2.816406 -17.078125 3.265625 -17.078125 C 3.773438 -17.078125 4.191406 -16.941406 4.515625 -16.671875 C 4.835938 -16.398438 5 -15.988281 5 -15.4375 C 5 -15.320312 4.992188 -15.203125 4.984375 -15.078125 C 4.972656 -14.960938 4.957031 -14.859375 4.9375 -14.765625 C 5.15625 -15.078125 5.421875 -15.394531 5.734375 -15.71875 C 6.046875 -16.039062 6.382812 -16.332031 6.75 -16.59375 C 7.113281 -16.863281 7.5 -17.082031 7.90625 -17.25 C 8.320312 -17.414062 8.734375 -17.5 9.140625 -17.5 C 9.535156 -17.5 9.890625 -17.390625 10.203125 -17.171875 C 10.515625 -16.953125 10.785156 -16.679688 11.015625 -16.359375 C 11.253906 -16.035156 11.453125 -15.6875 11.609375 -15.3125 C 11.765625 -14.945312 11.875 -14.597656 11.9375 -14.265625 C 12.132812 -14.617188 12.375 -14.972656 12.65625 -15.328125 C 12.9375 -15.691406 13.242188 -16.007812 13.578125 -16.28125 C 13.910156 -16.5625 14.28125 -16.789062 14.6875 -16.96875 C 15.09375 -17.144531 15.507812 -17.234375 15.9375 -17.234375 C 16.34375 -17.234375 16.691406 -17.082031 16.984375 -16.78125 C 17.285156 -16.488281 17.539062 -16.113281 17.75 -15.65625 C 17.96875 -15.195312 18.132812 -14.675781 18.25 -14.09375 C 18.375 -13.519531 18.472656 -12.953125 18.546875 -12.390625 C 18.628906 -11.835938 18.679688 -11.316406 18.703125 -10.828125 C 18.722656 -10.347656 18.734375 -9.972656 18.734375 -9.703125 Z M 18.734375 -9.703125 "/></g></g></g><g fill="#ffffff" fill-opacity="1"><g transform="translate(143.732087, 190.756466)"><g><path d="M 14.34375 -8.765625 C 14.34375 -7.898438 14.25 -6.953125 14.0625 -5.921875 C 13.882812 -4.890625 13.570312 -3.929688 13.125 -3.046875 C 12.6875 -2.171875 12.109375 -1.4375 11.390625 -0.84375 C 10.679688 -0.257812 9.785156 0.03125 8.703125 0.03125 C 8.429688 0.03125 8.144531 0.0078125 7.84375 -0.03125 C 7.550781 -0.0703125 7.269531 -0.140625 7 -0.234375 C 6.738281 -0.328125 6.5 -0.457031 6.28125 -0.625 C 6.070312 -0.789062 5.910156 -1.015625 5.796875 -1.296875 L 5.53125 2.9375 C 5.507812 3.382812 5.492188 3.921875 5.484375 4.546875 C 5.472656 5.179688 5.394531 5.78125 5.25 6.34375 C 5.101562 6.914062 4.859375 7.398438 4.515625 7.796875 C 4.171875 8.203125 3.675781 8.40625 3.03125 8.40625 C 2.65625 8.40625 2.335938 8.210938 2.078125 7.828125 C 1.828125 7.453125 1.628906 6.96875 1.484375 6.375 C 1.335938 5.789062 1.222656 5.132812 1.140625 4.40625 C 1.066406 3.6875 1.019531 2.992188 1 2.328125 C 0.976562 1.660156 0.96875 1.050781 0.96875 0.5 C 0.96875 -0.0507812 0.96875 -0.453125 0.96875 -0.703125 C 0.96875 -2.015625 0.957031 -3.320312 0.9375 -4.625 C 0.914062 -5.9375 0.90625 -7.25 0.90625 -8.5625 C 0.90625 -8.789062 0.90625 -9.15625 0.90625 -9.65625 C 0.90625 -10.15625 0.925781 -10.695312 0.96875 -11.28125 C 1.007812 -11.875 1.070312 -12.484375 1.15625 -13.109375 C 1.25 -13.742188 1.382812 -14.316406 1.5625 -14.828125 C 1.738281 -15.347656 1.960938 -15.769531 2.234375 -16.09375 C 2.503906 -16.414062 2.835938 -16.578125 3.234375 -16.578125 C 3.484375 -16.578125 3.710938 -16.503906 3.921875 -16.359375 C 4.128906 -16.210938 4.304688 -16.023438 4.453125 -15.796875 C 4.597656 -15.578125 4.71875 -15.335938 4.8125 -15.078125 C 4.914062 -14.828125 5 -14.59375 5.0625 -14.375 C 5.664062 -15.0625 6.363281 -15.582031 7.15625 -15.9375 C 7.945312 -16.289062 8.796875 -16.46875 9.703125 -16.46875 C 10.640625 -16.46875 11.40625 -16.203125 12 -15.671875 C 12.601562 -15.140625 13.078125 -14.484375 13.421875 -13.703125 C 13.765625 -12.921875 14.003906 -12.082031 14.140625 -11.1875 C 14.273438 -10.289062 14.34375 -9.484375 14.34375 -8.765625 Z M 10.140625 -9 C 10.140625 -9.289062 10.113281 -9.585938 10.0625 -9.890625 C 10.019531 -10.191406 9.929688 -10.472656 9.796875 -10.734375 C 9.671875 -11.003906 9.488281 -11.222656 9.25 -11.390625 C 9.019531 -11.554688 8.726562 -11.640625 8.375 -11.640625 C 7.90625 -11.640625 7.410156 -11.488281 6.890625 -11.1875 C 6.367188 -10.882812 5.984375 -10.535156 5.734375 -10.140625 C 5.640625 -9.984375 5.582031 -9.726562 5.5625 -9.375 C 5.539062 -9.019531 5.53125 -8.753906 5.53125 -8.578125 C 5.53125 -8.441406 5.535156 -8.257812 5.546875 -8.03125 C 5.554688 -7.8125 5.566406 -7.582031 5.578125 -7.34375 C 5.597656 -7.113281 5.625 -6.890625 5.65625 -6.671875 C 5.6875 -6.453125 5.734375 -6.285156 5.796875 -6.171875 C 5.847656 -5.992188 5.972656 -5.832031 6.171875 -5.6875 C 6.367188 -5.539062 6.582031 -5.40625 6.8125 -5.28125 C 7.050781 -5.164062 7.289062 -5.078125 7.53125 -5.015625 C 7.78125 -4.960938 7.992188 -4.9375 8.171875 -4.9375 C 8.585938 -4.9375 8.921875 -5.09375 9.171875 -5.40625 C 9.429688 -5.71875 9.632812 -6.085938 9.78125 -6.515625 C 9.925781 -6.953125 10.019531 -7.398438 10.0625 -7.859375 C 10.113281 -8.328125 10.140625 -8.707031 10.140625 -9 Z M 10.140625 -9 "/></g></g></g><g fill="#ffffff" fill-opacity="1"><g transform="translate(158.98468, 190.756466)"><g><path d="M 13.765625 -8.40625 C 13.765625 -7.332031 13.65625 -6.265625 13.4375 -5.203125 C 13.21875 -4.140625 12.851562 -3.191406 12.34375 -2.359375 C 11.832031 -1.535156 11.148438 -0.867188 10.296875 -0.359375 C 9.453125 0.148438 8.390625 0.40625 7.109375 0.40625 C 5.859375 0.40625 4.8125 0.15625 3.96875 -0.34375 C 3.125 -0.84375 2.453125 -1.503906 1.953125 -2.328125 C 1.453125 -3.148438 1.097656 -4.078125 0.890625 -5.109375 C 0.691406 -6.148438 0.59375 -7.210938 0.59375 -8.296875 C 0.59375 -9.472656 0.726562 -10.640625 1 -11.796875 C 1.0625 -12.109375 1.175781 -12.539062 1.34375 -13.09375 C 1.507812 -13.65625 1.722656 -14.203125 1.984375 -14.734375 C 2.242188 -15.273438 2.546875 -15.742188 2.890625 -16.140625 C 3.234375 -16.535156 3.613281 -16.734375 4.03125 -16.734375 C 4.414062 -16.734375 4.726562 -16.625 4.96875 -16.40625 C 5.207031 -16.1875 5.394531 -15.914062 5.53125 -15.59375 C 5.664062 -15.269531 5.75 -14.925781 5.78125 -14.5625 C 5.820312 -14.207031 5.84375 -13.878906 5.84375 -13.578125 C 5.84375 -13.128906 5.804688 -12.6875 5.734375 -12.25 C 5.671875 -11.820312 5.601562 -11.394531 5.53125 -10.96875 C 5.445312 -10.375 5.367188 -9.785156 5.296875 -9.203125 C 5.234375 -8.617188 5.203125 -8.03125 5.203125 -7.4375 C 5.203125 -7.144531 5.21875 -6.816406 5.25 -6.453125 C 5.28125 -6.085938 5.351562 -5.738281 5.46875 -5.40625 C 5.582031 -5.070312 5.75 -4.789062 5.96875 -4.5625 C 6.1875 -4.34375 6.488281 -4.234375 6.875 -4.234375 C 7.382812 -4.234375 7.789062 -4.367188 8.09375 -4.640625 C 8.40625 -4.921875 8.632812 -5.265625 8.78125 -5.671875 C 8.925781 -6.085938 9.015625 -6.53125 9.046875 -7 C 9.085938 -7.46875 9.109375 -7.898438 9.109375 -8.296875 C 9.109375 -9.148438 9.050781 -9.992188 8.9375 -10.828125 C 8.820312 -11.660156 8.710938 -12.507812 8.609375 -13.375 C 8.585938 -13.476562 8.578125 -13.617188 8.578125 -13.796875 C 8.578125 -14.085938 8.625 -14.378906 8.71875 -14.671875 C 8.820312 -14.960938 8.960938 -15.222656 9.140625 -15.453125 C 9.316406 -15.691406 9.53125 -15.882812 9.78125 -16.03125 C 10.039062 -16.1875 10.328125 -16.265625 10.640625 -16.265625 C 11.078125 -16.265625 11.460938 -16.109375 11.796875 -15.796875 C 12.128906 -15.492188 12.40625 -15.101562 12.625 -14.625 C 12.851562 -14.144531 13.039062 -13.601562 13.1875 -13 C 13.332031 -12.40625 13.445312 -11.816406 13.53125 -11.234375 C 13.625 -10.660156 13.6875 -10.117188 13.71875 -9.609375 C 13.75 -9.097656 13.765625 -8.695312 13.765625 -8.40625 Z M 13.765625 -8.40625 "/></g></g></g><g fill="#ffffff" fill-opacity="1"><g transform="translate(173.639708, 190.756466)"><g/></g></g><g fill="#ffffff" fill-opacity="1"><g transform="translate(180.722319, 190.756466)"><g/></g></g><g fill="#ffffff" fill-opacity="1"><g transform="translate(187.795957, 190.756466)"><g><path d="M 14.234375 -7.609375 C 14.234375 -7.273438 14.226562 -6.78125 14.21875 -6.125 C 14.207031 -5.46875 14.175781 -4.78125 14.125 -4.0625 C 14.082031 -3.351562 14.019531 -2.679688 13.9375 -2.046875 C 13.851562 -1.410156 13.753906 -0.941406 13.640625 -0.640625 C 13.484375 -0.273438 13.273438 0.0390625 13.015625 0.3125 C 12.765625 0.59375 12.425781 0.734375 12 0.734375 C 11.332031 0.734375 10.847656 0.46875 10.546875 -0.0625 C 10.253906 -0.59375 10.0625 -1.25 9.96875 -2.03125 C 9.875 -2.8125 9.832031 -3.660156 9.84375 -4.578125 C 9.863281 -5.503906 9.851562 -6.359375 9.8125 -7.140625 C 9.78125 -7.929688 9.675781 -8.585938 9.5 -9.109375 C 9.320312 -9.640625 9 -9.90625 8.53125 -9.90625 C 7.882812 -9.90625 7.390625 -9.800781 7.046875 -9.59375 C 6.703125 -9.394531 6.457031 -9.128906 6.3125 -8.796875 C 6.164062 -8.460938 6.078125 -8.078125 6.046875 -7.640625 C 6.015625 -7.210938 5.976562 -6.765625 5.9375 -6.296875 C 5.894531 -5.835938 5.863281 -5.226562 5.84375 -4.46875 C 5.832031 -3.707031 5.742188 -2.953125 5.578125 -2.203125 C 5.421875 -1.460938 5.160156 -0.820312 4.796875 -0.28125 C 4.441406 0.257812 3.910156 0.53125 3.203125 0.53125 C 2.773438 0.53125 2.425781 0.363281 2.15625 0.03125 C 1.894531 -0.300781 1.6875 -0.734375 1.53125 -1.265625 C 1.375 -1.796875 1.257812 -2.382812 1.1875 -3.03125 C 1.125 -3.675781 1.085938 -4.304688 1.078125 -4.921875 C 1.066406 -5.535156 1.066406 -6.097656 1.078125 -6.609375 C 1.085938 -7.117188 1.09375 -7.503906 1.09375 -7.765625 C 1.09375 -8.148438 1.101562 -8.796875 1.125 -9.703125 C 1.15625 -10.609375 1.21875 -11.613281 1.3125 -12.71875 C 1.414062 -13.820312 1.546875 -14.960938 1.703125 -16.140625 C 1.859375 -17.316406 2.0625 -18.390625 2.3125 -19.359375 C 2.570312 -20.328125 2.882812 -21.113281 3.25 -21.71875 C 3.613281 -22.332031 4.039062 -22.628906 4.53125 -22.609375 C 4.84375 -22.585938 5.109375 -22.445312 5.328125 -22.1875 C 5.554688 -21.9375 5.742188 -21.609375 5.890625 -21.203125 C 6.035156 -20.804688 6.15625 -20.375 6.25 -19.90625 C 6.351562 -19.4375 6.429688 -18.96875 6.484375 -18.5 C 6.535156 -18.039062 6.566406 -17.613281 6.578125 -17.21875 C 6.585938 -16.832031 6.59375 -16.53125 6.59375 -16.3125 C 6.59375 -15.800781 6.582031 -15.289062 6.5625 -14.78125 C 6.539062 -14.28125 6.507812 -13.773438 6.46875 -13.265625 C 6.914062 -13.867188 7.515625 -14.363281 8.265625 -14.75 C 9.023438 -15.144531 9.789062 -15.34375 10.5625 -15.34375 C 11.539062 -15.34375 12.28125 -15.070312 12.78125 -14.53125 C 13.28125 -14 13.632812 -13.332031 13.84375 -12.53125 C 14.0625 -11.738281 14.179688 -10.894531 14.203125 -10 C 14.222656 -9.113281 14.234375 -8.316406 14.234375 -7.609375 Z M 14.234375 -7.609375 "/></g></g></g><g fill="#ffffff" fill-opacity="1"><g transform="translate(203.22488, 190.756466)"><g><path d="M 14.34375 -8.765625 C 14.34375 -7.898438 14.25 -6.953125 14.0625 -5.921875 C 13.882812 -4.890625 13.570312 -3.929688 13.125 -3.046875 C 12.6875 -2.171875 12.109375 -1.4375 11.390625 -0.84375 C 10.679688 -0.257812 9.785156 0.03125 8.703125 0.03125 C 8.429688 0.03125 8.144531 0.0078125 7.84375 -0.03125 C 7.550781 -0.0703125 7.269531 -0.140625 7 -0.234375 C 6.738281 -0.328125 6.5 -0.457031 6.28125 -0.625 C 6.070312 -0.789062 5.910156 -1.015625 5.796875 -1.296875 L 5.53125 2.9375 C 5.507812 3.382812 5.492188 3.921875 5.484375 4.546875 C 5.472656 5.179688 5.394531 5.78125 5.25 6.34375 C 5.101562 6.914062 4.859375 7.398438 4.515625 7.796875 C 4.171875 8.203125 3.675781 8.40625 3.03125 8.40625 C 2.65625 8.40625 2.335938 8.210938 2.078125 7.828125 C 1.828125 7.453125 1.628906 6.96875 1.484375 6.375 C 1.335938 5.789062 1.222656 5.132812 1.140625 4.40625 C 1.066406 3.6875 1.019531 2.992188 1 2.328125 C 0.976562 1.660156 0.96875 1.050781 0.96875 0.5 C 0.96875 -0.0507812 0.96875 -0.453125 0.96875 -0.703125 C 0.96875 -2.015625 0.957031 -3.320312 0.9375 -4.625 C 0.914062 -5.9375 0.90625 -7.25 0.90625 -8.5625 C 0.90625 -8.789062 0.90625 -9.15625 0.90625 -9.65625 C 0.90625 -10.15625 0.925781 -10.695312 0.96875 -11.28125 C 1.007812 -11.875 1.070312 -12.484375 1.15625 -13.109375 C 1.25 -13.742188 1.382812 -14.316406 1.5625 -14.828125 C 1.738281 -15.347656 1.960938 -15.769531 2.234375 -16.09375 C 2.503906 -16.414062 2.835938 -16.578125 3.234375 -16.578125 C 3.484375 -16.578125 3.710938 -16.503906 3.921875 -16.359375 C 4.128906 -16.210938 4.304688 -16.023438 4.453125 -15.796875 C 4.597656 -15.578125 4.71875 -15.335938 4.8125 -15.078125 C 4.914062 -14.828125 5 -14.59375 5.0625 -14.375 C 5.664062 -15.0625 6.363281 -15.582031 7.15625 -15.9375 C 7.945312 -16.289062 8.796875 -16.46875 9.703125 -16.46875 C 10.640625 -16.46875 11.40625 -16.203125 12 -15.671875 C 12.601562 -15.140625 13.078125 -14.484375 13.421875 -13.703125 C 13.765625 -12.921875 14.003906 -12.082031 14.140625 -11.1875 C 14.273438 -10.289062 14.34375 -9.484375 14.34375 -8.765625 Z M 10.140625 -9 C 10.140625 -9.289062 10.113281 -9.585938 10.0625 -9.890625 C 10.019531 -10.191406 9.929688 -10.472656 9.796875 -10.734375 C 9.671875 -11.003906 9.488281 -11.222656 9.25 -11.390625 C 9.019531 -11.554688 8.726562 -11.640625 8.375 -11.640625 C 7.90625 -11.640625 7.410156 -11.488281 6.890625 -11.1875 C 6.367188 -10.882812 5.984375 -10.535156 5.734375 -10.140625 C 5.640625 -9.984375 5.582031 -9.726562 5.5625 -9.375 C 5.539062 -9.019531 5.53125 -8.753906 5.53125 -8.578125 C 5.53125 -8.441406 5.535156 -8.257812 5.546875 -8.03125 C 5.554688 -7.8125 5.566406 -7.582031 5.578125 -7.34375 C 5.597656 -7.113281 5.625 -6.890625 5.65625 -6.671875 C 5.6875 -6.453125 5.734375 -6.285156 5.796875 -6.171875 C 5.847656 -5.992188 5.972656 -5.832031 6.171875 -5.6875 C 6.367188 -5.539062 6.582031 -5.40625 6.8125 -5.28125 C 7.050781 -5.164062 7.289062 -5.078125 7.53125 -5.015625 C 7.78125 -4.960938 7.992188 -4.9375 8.171875 -4.9375 C 8.585938 -4.9375 8.921875 -5.09375 9.171875 -5.40625 C 9.429688 -5.71875 9.632812 -6.085938 9.78125 -6.515625 C 9.925781 -6.953125 10.019531 -7.398438 10.0625 -7.859375 C 10.113281 -8.328125 10.140625 -8.707031 10.140625 -9 Z M 10.140625 -9 "/></g></g></g><g fill="#ffffff" fill-opacity="1"><g transform="translate(218.477473, 190.756466)"><g><path d="M 13.203125 -5.234375 C 13.203125 -4.566406 12.988281 -3.914062 12.5625 -3.28125 C 12.144531 -2.644531 11.617188 -2.078125 10.984375 -1.578125 C 10.347656 -1.078125 9.664062 -0.671875 8.9375 -0.359375 C 8.207031 -0.0546875 7.539062 0.09375 6.9375 0.09375 C 5.894531 0.09375 4.96875 -0.164062 4.15625 -0.6875 C 3.34375 -1.207031 2.660156 -1.867188 2.109375 -2.671875 C 1.566406 -3.472656 1.148438 -4.359375 0.859375 -5.328125 C 0.578125 -6.304688 0.4375 -7.253906 0.4375 -8.171875 C 0.4375 -9.148438 0.570312 -10.195312 0.84375 -11.3125 C 1.125 -12.4375 1.539062 -13.46875 2.09375 -14.40625 C 2.65625 -15.34375 3.363281 -16.125 4.21875 -16.75 C 5.070312 -17.382812 6.085938 -17.703125 7.265625 -17.703125 C 7.929688 -17.703125 8.566406 -17.585938 9.171875 -17.359375 C 9.773438 -17.140625 10.300781 -16.820312 10.75 -16.40625 C 11.207031 -16 11.570312 -15.507812 11.84375 -14.9375 C 12.125 -14.363281 12.265625 -13.726562 12.265625 -13.03125 C 12.265625 -12.101562 12.066406 -11.238281 11.671875 -10.4375 C 11.273438 -9.632812 10.753906 -8.9375 10.109375 -8.34375 C 9.460938 -7.757812 8.71875 -7.285156 7.875 -6.921875 C 7.03125 -6.554688 6.171875 -6.359375 5.296875 -6.328125 C 5.367188 -5.753906 5.597656 -5.335938 5.984375 -5.078125 C 6.367188 -4.828125 6.820312 -4.703125 7.34375 -4.703125 C 7.738281 -4.703125 8.125 -4.800781 8.5 -5 C 8.875 -5.195312 9.234375 -5.414062 9.578125 -5.65625 C 9.929688 -5.90625 10.28125 -6.125 10.625 -6.3125 C 10.96875 -6.507812 11.316406 -6.609375 11.671875 -6.609375 C 12.066406 -6.609375 12.421875 -6.476562 12.734375 -6.21875 C 13.046875 -5.96875 13.203125 -5.640625 13.203125 -5.234375 Z M 8.4375 -12.4375 C 8.4375 -12.6875 8.367188 -12.945312 8.234375 -13.21875 C 8.097656 -13.5 7.882812 -13.640625 7.59375 -13.640625 C 7.15625 -13.640625 6.789062 -13.523438 6.5 -13.296875 C 6.207031 -13.078125 5.960938 -12.796875 5.765625 -12.453125 C 5.566406 -12.109375 5.410156 -11.738281 5.296875 -11.34375 C 5.191406 -10.957031 5.128906 -10.597656 5.109375 -10.265625 C 5.390625 -10.316406 5.71875 -10.390625 6.09375 -10.484375 C 6.476562 -10.585938 6.84375 -10.722656 7.1875 -10.890625 C 7.53125 -11.054688 7.820312 -11.265625 8.0625 -11.515625 C 8.3125 -11.773438 8.4375 -12.082031 8.4375 -12.4375 Z M 8.4375 -12.4375 "/></g></g></g><g fill="#ffffff" fill-opacity="1"><g transform="translate(231.966761, 190.756466)"><g><path d="M 11.078125 -11 C 10.804688 -10.976562 10.570312 -11 10.375 -11.0625 C 10.175781 -11.132812 9.984375 -11.210938 9.796875 -11.296875 C 9.617188 -11.367188 9.441406 -11.4375 9.265625 -11.5 C 9.085938 -11.570312 8.890625 -11.597656 8.671875 -11.578125 C 8.285156 -11.566406 7.9375 -11.460938 7.625 -11.265625 C 7.320312 -11.066406 7.046875 -10.816406 6.796875 -10.515625 C 6.554688 -10.222656 6.347656 -9.894531 6.171875 -9.53125 C 5.992188 -9.175781 5.859375 -8.820312 5.765625 -8.46875 C 5.703125 -8.226562 5.65625 -7.867188 5.625 -7.390625 C 5.601562 -6.910156 5.59375 -6.394531 5.59375 -5.84375 C 5.570312 -5.28125 5.5625 -4.742188 5.5625 -4.234375 C 5.5625 -3.722656 5.539062 -3.320312 5.5 -3.03125 C 5.476562 -2.71875 5.425781 -2.347656 5.34375 -1.921875 C 5.269531 -1.503906 5.148438 -1.109375 4.984375 -0.734375 C 4.816406 -0.359375 4.59375 -0.046875 4.3125 0.203125 C 4.039062 0.460938 3.691406 0.59375 3.265625 0.59375 C 2.929688 0.59375 2.640625 0.492188 2.390625 0.296875 C 2.148438 0.0976562 1.945312 -0.160156 1.78125 -0.484375 C 1.613281 -0.804688 1.472656 -1.179688 1.359375 -1.609375 C 1.253906 -2.046875 1.175781 -2.488281 1.125 -2.9375 C 1.0625 -3.40625 1.015625 -3.875 0.984375 -4.34375 C 0.953125 -4.820312 0.929688 -5.269531 0.921875 -5.6875 C 0.910156 -6.113281 0.910156 -6.5 0.921875 -6.84375 C 0.929688 -7.195312 0.9375 -7.484375 0.9375 -7.703125 C 0.914062 -8.390625 0.878906 -9.082031 0.828125 -9.78125 C 0.785156 -10.476562 0.765625 -11.164062 0.765625 -11.84375 C 0.765625 -12.28125 0.78125 -12.757812 0.8125 -13.28125 C 0.851562 -13.8125 0.960938 -14.304688 1.140625 -14.765625 C 1.316406 -15.234375 1.578125 -15.625 1.921875 -15.9375 C 2.265625 -16.25 2.742188 -16.40625 3.359375 -16.40625 C 3.691406 -16.40625 3.972656 -16.296875 4.203125 -16.078125 C 4.441406 -15.867188 4.632812 -15.601562 4.78125 -15.28125 C 4.925781 -14.96875 5.035156 -14.632812 5.109375 -14.28125 C 5.191406 -13.9375 5.242188 -13.613281 5.265625 -13.3125 C 5.734375 -14.082031 6.257812 -14.707031 6.84375 -15.1875 C 7.4375 -15.664062 8.203125 -15.925781 9.140625 -15.96875 C 9.609375 -15.988281 10.070312 -15.941406 10.53125 -15.828125 C 11 -15.722656 11.421875 -15.546875 11.796875 -15.296875 C 12.179688 -15.054688 12.492188 -14.738281 12.734375 -14.34375 C 12.984375 -13.957031 13.117188 -13.5 13.140625 -12.96875 C 13.179688 -12.34375 12.992188 -11.863281 12.578125 -11.53125 C 12.171875 -11.195312 11.671875 -11.019531 11.078125 -11 Z M 11.078125 -11 "/></g></g></g><g fill="#ffffff" fill-opacity="1"><g transform="translate(244.662561, 190.756466)"><g><path d="M 13.203125 -5.234375 C 13.203125 -4.566406 12.988281 -3.914062 12.5625 -3.28125 C 12.144531 -2.644531 11.617188 -2.078125 10.984375 -1.578125 C 10.347656 -1.078125 9.664062 -0.671875 8.9375 -0.359375 C 8.207031 -0.0546875 7.539062 0.09375 6.9375 0.09375 C 5.894531 0.09375 4.96875 -0.164062 4.15625 -0.6875 C 3.34375 -1.207031 2.660156 -1.867188 2.109375 -2.671875 C 1.566406 -3.472656 1.148438 -4.359375 0.859375 -5.328125 C 0.578125 -6.304688 0.4375 -7.253906 0.4375 -8.171875 C 0.4375 -9.148438 0.570312 -10.195312 0.84375 -11.3125 C 1.125 -12.4375 1.539062 -13.46875 2.09375 -14.40625 C 2.65625 -15.34375 3.363281 -16.125 4.21875 -16.75 C 5.070312 -17.382812 6.085938 -17.703125 7.265625 -17.703125 C 7.929688 -17.703125 8.566406 -17.585938 9.171875 -17.359375 C 9.773438 -17.140625 10.300781 -16.820312 10.75 -16.40625 C 11.207031 -16 11.570312 -15.507812 11.84375 -14.9375 C 12.125 -14.363281 12.265625 -13.726562 12.265625 -13.03125 C 12.265625 -12.101562 12.066406 -11.238281 11.671875 -10.4375 C 11.273438 -9.632812 10.753906 -8.9375 10.109375 -8.34375 C 9.460938 -7.757812 8.71875 -7.285156 7.875 -6.921875 C 7.03125 -6.554688 6.171875 -6.359375 5.296875 -6.328125 C 5.367188 -5.753906 5.597656 -5.335938 5.984375 -5.078125 C 6.367188 -4.828125 6.820312 -4.703125 7.34375 -4.703125 C 7.738281 -4.703125 8.125 -4.800781 8.5 -5 C 8.875 -5.195312 9.234375 -5.414062 9.578125 -5.65625 C 9.929688 -5.90625 10.28125 -6.125 10.625 -6.3125 C 10.96875 -6.507812 11.316406 -6.609375 11.671875 -6.609375 C 12.066406 -6.609375 12.421875 -6.476562 12.734375 -6.21875 C 13.046875 -5.96875 13.203125 -5.640625 13.203125 -5.234375 Z M 8.4375 -12.4375 C 8.4375 -12.6875 8.367188 -12.945312 8.234375 -13.21875 C 8.097656 -13.5 7.882812 -13.640625 7.59375 -13.640625 C 7.15625 -13.640625 6.789062 -13.523438 6.5 -13.296875 C 6.207031 -13.078125 5.960938 -12.796875 5.765625 -12.453125 C 5.566406 -12.109375 5.410156 -11.738281 5.296875 -11.34375 C 5.191406 -10.957031 5.128906 -10.597656 5.109375 -10.265625 C 5.390625 -10.316406 5.71875 -10.390625 6.09375 -10.484375 C 6.476562 -10.585938 6.84375 -10.722656 7.1875 -10.890625 C 7.53125 -11.054688 7.820312 -11.265625 8.0625 -11.515625 C 8.3125 -11.773438 8.4375 -12.082031 8.4375 -12.4375 Z M 8.4375 -12.4375 "/></g></g></g><g fill="#99d98c" fill-opacity="0.302"><g transform="translate(164.136002, 204.126856)"><g><path d="M 5.8125 -0.996094 C 6.914062 -0.792969 8.03125 -0.816406 9.171875 -0.976562 C 10.839844 -1.210938 12.597656 -1.773438 14.480469 -2.707031 C 17.566406 -4.308594 20.328125 -6.621094 22.765625 -9.648438 C 24.5625 -11.828125 25.589844 -13.761719 25.882812 -15.503906 C 25.984375 -16.054688 26.003906 -16.550781 25.933594 -17.03125 C 25.800781 -17.996094 25.289062 -18.777344 24.480469 -19.421875 C 23.578125 -20.101562 22.453125 -20.480469 21.183594 -20.570312 C 19.832031 -20.648438 17.664062 -20.476562 14.589844 -20.046875 C 13.097656 -19.835938 11.730469 -19.6875 10.488281 -19.601562 C 9.25 -19.519531 8.535156 -19.507812 8.347656 -19.570312 C 7.40625 -19.886719 7.195312 -20.75 7.628906 -22.109375 C 8.070312 -23.425781 9.167969 -25.191406 10.917969 -27.363281 C 11.835938 -28.476562 12.84375 -29.601562 14.023438 -30.753906 C 15.128906 -31.804688 16.207031 -32.714844 17.226562 -33.441406 C 17.710938 -33.824219 18.199219 -34.160156 18.613281 -34.398438 C 19.027344 -34.636719 19.410156 -34.777344 19.71875 -34.820312 C 20.199219 -34.890625 20.125 -34.476562 19.519531 -33.675781 C 18.875 -32.867188 17.929688 -31.929688 16.730469 -30.910156 C 15.609375 -29.992188 14.949219 -29.273438 14.703125 -28.789062 C 14.414062 -28.300781 14.507812 -27.957031 15.015625 -27.847656 C 15.382812 -27.765625 16.175781 -28.191406 17.304688 -29.066406 C 18.390625 -29.933594 19.457031 -30.9375 20.507812 -32.066406 C 21.210938 -32.792969 21.789062 -33.457031 22.273438 -34.152344 C 22.769531 -34.757812 23.050781 -35.289062 23.128906 -35.703125 C 23.25 -36.4375 23.082031 -36.996094 22.582031 -37.371094 C 22.085938 -37.707031 21.308594 -37.820312 20.34375 -37.683594 C 18.761719 -37.460938 16.925781 -36.53125 14.777344 -34.933594 C 12.632812 -33.332031 10.691406 -31.539062 8.960938 -29.503906 C 8 -28.382812 7.175781 -27.238281 6.480469 -26.15625 C 5.75 -24.980469 5.226562 -23.921875 4.914062 -22.980469 C 4.433594 -21.617188 4.269531 -20.5625 4.378906 -19.773438 C 4.488281 -18.984375 4.902344 -18.28125 5.664062 -17.625 C 6.484375 -16.890625 7.480469 -16.496094 8.746094 -16.402344 C 9.96875 -16.308594 12.175781 -16.527344 15.378906 -16.980469 C 17.75 -17.3125 19.335938 -17.492188 20.136719 -17.515625 C 20.898438 -17.53125 21.5 -17.394531 21.9375 -17.140625 C 22.523438 -16.777344 22.769531 -16.316406 22.625 -15.761719 C 22.433594 -15.195312 21.765625 -14.207031 20.617188 -12.835938 C 19.625 -11.625 18.269531 -10.449219 16.636719 -9.324219 C 15.011719 -8.15625 13.347656 -7.25 11.699219 -6.570312 C 10.046875 -5.890625 8.273438 -5.460938 6.324219 -5.320312 C 4.335938 -5.128906 2.933594 -5.246094 2.054688 -5.75 C 1.191406 -6.164062 0.664062 -6.40625 0.488281 -6.378906 C 0.3125 -6.355469 0.257812 -6.125 0.332031 -5.597656 C 0.480469 -4.542969 1.0625 -3.59375 2.175781 -2.679688 C 3.246094 -1.753906 4.445312 -1.164062 5.8125 -0.996094 Z M 5.8125 -0.996094 "/></g></g></g><g fill="#99d98c" fill-opacity="0.502"><g transform="translate(165.231998, 203.139684)"><g><path d="M 5.8125 -0.996094 C 6.914062 -0.792969 8.03125 -0.816406 9.171875 -0.976562 C 10.839844 -1.210938 12.597656 -1.773438 14.480469 -2.707031 C 17.566406 -4.308594 20.328125 -6.621094 22.765625 -9.648438 C 24.5625 -11.828125 25.589844 -13.761719 25.882812 -15.503906 C 25.984375 -16.054688 26.003906 -16.550781 25.933594 -17.03125 C 25.800781 -17.996094 25.289062 -18.777344 24.480469 -19.421875 C 23.578125 -20.101562 22.453125 -20.480469 21.183594 -20.570312 C 19.832031 -20.648438 17.664062 -20.476562 14.589844 -20.046875 C 13.097656 -19.835938 11.730469 -19.6875 10.488281 -19.601562 C 9.25 -19.519531 8.535156 -19.507812 8.347656 -19.570312 C 7.40625 -19.886719 7.195312 -20.75 7.628906 -22.109375 C 8.070312 -23.425781 9.167969 -25.191406 10.917969 -27.363281 C 11.835938 -28.476562 12.84375 -29.601562 14.023438 -30.753906 C 15.128906 -31.804688 16.207031 -32.714844 17.226562 -33.441406 C 17.710938 -33.824219 18.199219 -34.160156 18.613281 -34.398438 C 19.027344 -34.636719 19.410156 -34.777344 19.71875 -34.820312 C 20.199219 -34.890625 20.125 -34.476562 19.519531 -33.675781 C 18.875 -32.867188 17.929688 -31.929688 16.730469 -30.910156 C 15.609375 -29.992188 14.949219 -29.273438 14.703125 -28.789062 C 14.414062 -28.300781 14.507812 -27.957031 15.015625 -27.847656 C 15.382812 -27.765625 16.175781 -28.191406 17.304688 -29.066406 C 18.390625 -29.933594 19.457031 -30.9375 20.507812 -32.066406 C 21.210938 -32.792969 21.789062 -33.457031 22.273438 -34.152344 C 22.769531 -34.757812 23.050781 -35.289062 23.128906 -35.703125 C 23.25 -36.4375 23.082031 -36.996094 22.582031 -37.371094 C 22.085938 -37.707031 21.308594 -37.820312 20.34375 -37.683594 C 18.761719 -37.460938 16.925781 -36.53125 14.777344 -34.933594 C 12.632812 -33.332031 10.691406 -31.539062 8.960938 -29.503906 C 8 -28.382812 7.175781 -27.238281 6.480469 -26.15625 C 5.75 -24.980469 5.226562 -23.921875 4.914062 -22.980469 C 4.433594 -21.617188 4.269531 -20.5625 4.378906 -19.773438 C 4.488281 -18.984375 4.902344 -18.28125 5.664062 -17.625 C 6.484375 -16.890625 7.480469 -16.496094 8.746094 -16.402344 C 9.96875 -16.308594 12.175781 -16.527344 15.378906 -16.980469 C 17.75 -17.3125 19.335938 -17.492188 20.136719 -17.515625 C 20.898438 -17.53125 21.5 -17.394531 21.9375 -17.140625 C 22.523438 -16.777344 22.769531 -16.316406 22.625 -15.761719 C 22.433594 -15.195312 21.765625 -14.207031 20.617188 -12.835938 C 19.625 -11.625 18.269531 -10.449219 16.636719 -9.324219 C 15.011719 -8.15625 13.347656 -7.25 11.699219 -6.570312 C 10.046875 -5.890625 8.273438 -5.460938 6.324219 -5.320312 C 4.335938 -5.128906 2.933594 -5.246094 2.054688 -5.75 C 1.191406 -6.164062 0.664062 -6.40625 0.488281 -6.378906 C 0.3125 -6.355469 0.257812 -6.125 0.332031 -5.597656 C 0.480469 -4.542969 1.0625 -3.59375 2.175781 -2.679688 C 3.246094 -1.753906 4.445312 -1.164062 5.8125 -0.996094 Z M 5.8125 -0.996094 "/></g></g></g><g fill="#99d98c" fill-opacity="1"><g transform="translate(166.327994, 202.152494)"><g><path d="M 5.8125 -0.996094 C 6.914062 -0.792969 8.03125 -0.816406 9.171875 -0.976562 C 10.839844 -1.210938 12.597656 -1.773438 14.480469 -2.707031 C 17.566406 -4.308594 20.328125 -6.621094 22.765625 -9.648438 C 24.5625 -11.828125 25.589844 -13.761719 25.882812 -15.503906 C 25.984375 -16.054688 26.003906 -16.550781 25.933594 -17.03125 C 25.800781 -17.996094 25.289062 -18.777344 24.480469 -19.421875 C 23.578125 -20.101562 22.453125 -20.480469 21.183594 -20.570312 C 19.832031 -20.648438 17.664062 -20.476562 14.589844 -20.046875 C 13.097656 -19.835938 11.730469 -19.6875 10.488281 -19.601562 C 9.25 -19.519531 8.535156 -19.507812 8.347656 -19.570312 C 7.40625 -19.886719 7.195312 -20.75 7.628906 -22.109375 C 8.070312 -23.425781 9.167969 -25.191406 10.917969 -27.363281 C 11.835938 -28.476562 12.84375 -29.601562 14.023438 -30.753906 C 15.128906 -31.804688 16.207031 -32.714844 17.226562 -33.441406 C 17.710938 -33.824219 18.199219 -34.160156 18.613281 -34.398438 C 19.027344 -34.636719 19.410156 -34.777344 19.71875 -34.820312 C 20.199219 -34.890625 20.125 -34.476562 19.519531 -33.675781 C 18.875 -32.867188 17.929688 -31.929688 16.730469 -30.910156 C 15.609375 -29.992188 14.949219 -29.273438 14.703125 -28.789062 C 14.414062 -28.300781 14.507812 -27.957031 15.015625 -27.847656 C 15.382812 -27.765625 16.175781 -28.191406 17.304688 -29.066406 C 18.390625 -29.933594 19.457031 -30.9375 20.507812 -32.066406 C 21.210938 -32.792969 21.789062 -33.457031 22.273438 -34.152344 C 22.769531 -34.757812 23.050781 -35.289062 23.128906 -35.703125 C 23.25 -36.4375 23.082031 -36.996094 22.582031 -37.371094 C 22.085938 -37.707031 21.308594 -37.820312 20.34375 -37.683594 C 18.761719 -37.460938 16.925781 -36.53125 14.777344 -34.933594 C 12.632812 -33.332031 10.691406 -31.539062 8.960938 -29.503906 C 8 -28.382812 7.175781 -27.238281 6.480469 -26.15625 C 5.75 -24.980469 5.226562 -23.921875 4.914062 -22.980469 C 4.433594 -21.617188 4.269531 -20.5625 4.378906 -19.773438 C 4.488281 -18.984375 4.902344 -18.28125 5.664062 -17.625 C 6.484375 -16.890625 7.480469 -16.496094 8.746094 -16.402344 C 9.96875 -16.308594 12.175781 -16.527344 15.378906 -16.980469 C 17.75 -17.3125 19.335938 -17.492188 20.136719 -17.515625 C 20.898438 -17.53125 21.5 -17.394531 21.9375 -17.140625 C 22.523438 -16.777344 22.769531 -16.316406 22.625 -15.761719 C 22.433594 -15.195312 21.765625 -14.207031 20.617188 -12.835938 C 19.625 -11.625 18.269531 -10.449219 16.636719 -9.324219 C 15.011719 -8.15625 13.347656 -7.25 11.699219 -6.570312 C 10.046875 -5.890625 8.273438 -5.460938 6.324219 -5.320312 C 4.335938 -5.128906 2.933594 -5.246094 2.054688 -5.75 C 1.191406 -6.164062 0.664062 -6.40625 0.488281 -6.378906 C 0.3125 -6.355469 0.257812 -6.125 0.332031 -5.597656 C 0.480469 -4.542969 1.0625 -3.59375 2.175781 -2.679688 C 3.246094 -1.753906 4.445312 -1.164062 5.8125 -0.996094 Z M 5.8125 -0.996094 "/></g></g></g></svg>